<!DOCTYPE svg PUBLIC "-//W3C//DTD SVG 20010904//EN" "http://www.w3.org/TR/2001/REC-SVG-20010904/DTD/svg10.dtd">
<svg version="1.0" xmlns="http://www.w3.org/2000/svg" width="400px" height="400px" viewBox="0 0 4000 4000" preserveAspectRatio="xMidYMid meet">
<g id="layer101" fill="#ffffff" stroke="none">
 <path d="M413 3152 l-32 -27 56 -130 c30 -71 66 -157 80 -190 14 -33 31 -75 39 -92 8 -18 21 -50 29 -70 7 -21 28 -72 46 -113 17 -41 42 -100 54 -130 129 -311 178 -430 190 -455 7 -16 29 -70 50 -120 20 -49 43 -105 51 -122 8 -18 21 -50 29 -70 7 -21 28 -72 46 -113 17 -41 42 -101 55 -132 13 -32 35 -84 48 -115 13 -32 38 -92 55 -133 18 -41 39 -92 46 -113 8 -20 21 -52 29 -70 21 -46 71 -166 86 -207 7 -19 17 -39 21 -45 4 -5 10 -27 14 -47 6 -31 -3 -68 -46 -198 -29 -88 -55 -160 -58 -160 -3 0 -42 87 -85 193 -44 105 -90 216 -103 245 -12 29 -23 55 -23 58 0 3 -11 30 -25 60 -14 30 -25 57 -25 60 0 3 -11 29 -24 57 -13 29 -27 63 -31 77 -7 22 -29 74 -71 167 -8 18 -21 50 -29 70 -7 21 -28 71 -44 111 -74 175 -93 220 -113 270 -11 30 -26 66 -34 80 -8 15 -14 30 -14 34 0 4 -11 32 -25 62 -14 30 -25 57 -25 60 0 3 -11 30 -25 60 -14 30 -25 57 -25 60 0 3 -11 30 -25 60 -14 30 -25 57 -25 60 0 4 -8 25 -19 49 -10 23 -38 89 -62 147 -23 58 -46 109 -51 114 -4 6 -8 16 -8 24 0 8 -7 28 -15 45 -8 18 -66 154 -128 304 l-113 272 -32 -22 c-37 -25 -36 -35 3 -127 13 -30 142 -338 285 -685 144 -346 283 -682 309 -745 27 -63 63 -151 81 -195 18 -44 40 -98 50 -120 10 -22 89 -211 175 -420 86 -209 165 -398 174 -420 10 -22 31 -73 47 -114 24 -59 36 -78 67 -98 22 -13 42 -22 45 -18 3 3 34 90 68 193 54 163 63 184 72 162 5 -14 31 -74 56 -135 41 -97 51 -112 82 -128 20 -10 39 -16 41 -13 7 6 49 134 610 1836 57 173 111 334 119 358 l16 43 15 -28 c8 -15 60 -116 115 -223 55 -107 124 -240 153 -295 29 -55 101 -194 160 -310 59 -115 142 -277 185 -360 43 -82 121 -235 175 -340 54 -104 134 -260 178 -345 43 -85 97 -189 118 -230 59 -117 59 -117 93 -81 l29 31 -42 82 c-24 46 -95 184 -158 308 -64 124 -135 261 -158 305 -41 76 -114 218 -352 685 -58 113 -133 259 -168 325 -79 151 -263 508 -287 557 l-18 37 39 123 c45 140 59 178 65 178 3 0 24 -39 49 -87 24 -49 82 -162 129 -253 47 -91 125 -241 173 -335 48 -93 122 -237 165 -320 43 -82 125 -242 183 -355 306 -597 629 -1224 632 -1228 5 -6 42 21 54 40 12 19 1 42 -284 593 -29 55 -107 208 -175 340 -67 132 -139 272 -160 310 -35 66 -111 213 -352 685 -55 107 -131 254 -168 325 -137 262 -210 409 -210 423 0 9 -12 12 -42 10 l-42 -3 -54 -162 c-30 -90 -57 -163 -61 -163 -3 0 -33 54 -66 120 l-59 120 -42 0 -41 0 -43 -132 c-24 -73 -105 -320 -180 -548 -76 -228 -208 -631 -294 -895 -87 -264 -162 -491 -167 -505 -4 -14 -13 -38 -19 -55 l-11 -30 -30 63 c-16 35 -29 67 -29 71 0 4 -13 34 -29 67 -15 32 -32 70 -36 84 -4 14 -18 48 -31 77 -13 28 -24 54 -24 57 0 4 -9 25 -19 49 -11 23 -36 83 -56 132 -20 50 -43 104 -50 120 -7 17 -50 120 -95 230 -45 110 -90 219 -101 242 -10 24 -19 45 -19 48 0 4 -9 25 -19 48 -11 23 -58 137 -106 252 -47 116 -95 229 -106 252 -10 24 -19 46 -19 50 0 5 -6 20 -14 35 -8 14 -23 50 -34 80 -12 29 -35 86 -51 126 -17 39 -45 105 -62 145 -16 39 -39 96 -50 124 -11 29 -23 55 -27 57 -4 2 -22 -8 -39 -22z m1871 -468 c31 -62 56 -119 56 -127 0 -8 -41 -137 -90 -288 -50 -151 -172 -519 -271 -819 -99 -300 -219 -663 -266 -807 -48 -145 -89 -263 -93 -263 -3 0 -30 58 -59 130 l-53 129 197 598 c390 1182 517 1564 520 1561 1 -2 28 -53 59 -114z"/>
 </g>

</svg>